<?xml version="1.0" encoding="iso-8859-1"?>
<!-- Uploaded to: SVG Repo, www.svgrepo.com, Generator: SVG Repo Mixer Tools -->
<svg height="800px" width="800px" version="1.1" id="Layer_1" xmlns="http://www.w3.org/2000/svg" xmlns:xlink="http://www.w3.org/1999/xlink" 
	 viewBox="0 0 384 384" xml:space="preserve">
<g>
	<path style="fill:#044982;" d="M160,336c0,17.688-14.312,32-32,32H32c-17.68,0-32-14.312-32-32V48c0-17.672,14.32-32,32-32h96
		c17.688,0,32,14.328,32,32V336z"/>
	<path style="fill:#044982;" d="M384,208c0,17.688-14.312,32-32,32h-96c-17.68,0-32-14.312-32-32V48c0-17.672,14.32-32,32-32h96
		c17.688,0,32,14.328,32,32V208z"/>
</g>
<path style="fill:#2490C6;" d="M384,58.72V48c0-17.672-14.312-32-32-32h-96c-17.68,0-32,14.328-32,32v160
	c0,12.624,7.368,23.432,17.976,28.64C319.136,193.872,370.464,126.2,384,58.72z"/>
<path style="fill:#0E6BA5;" d="M384,58.72V48c0-17.672-14.312-16-32-16h-96c-17.68,0-32-1.672-32,16v160
	c0,12.624,7.368,23.432,17.976,28.64C319.136,193.872,370.464,126.2,384,58.72z"/>
<path style="fill:#2490C6;" d="M160,268.832V48c0-17.672-14.312-32-32-32H32C14.32,16,0,30.328,0,48v211.504
	C45.504,279.168,102.232,282.84,160,268.832z"/>
<path style="fill:#0E6BA5;" d="M160,268.832V48c0-17.672-14.312-16-32-16H32C14.32,32,0,30.328,0,48v211.504
	C45.504,279.168,102.232,282.84,160,268.832z"/>
</svg>